HIERARCHY
ROOT Hips
{
	OFFSET -0.001795 -0.223333 0.028219
	CHANNELS 6 Xposition Yposition Zposition Zrotation Yrotation Xrotation 
	JOINT LeftUpLeg
	{
		OFFSET 0.069520 -0.091406 -0.006815
		CHANNELS 3 Zrotation Yrotation Xrotation
		JOINT LeftLeg
		{
			OFFSET 0.034277 -0.375199 -0.004496
			CHANNELS 3 Zrotation Yrotation Xrotation
			JOINT LeftFoot
			{
				OFFSET -0.013596 -0.397961 -0.043693
				CHANNELS 3 Zrotation Yrotation Xrotation
				JOINT LeftToe
				{
					OFFSET 0.026358 -0.055791 0.119288
					CHANNELS 3 Zrotation Yrotation Xrotation
					End Site
					{
						OFFSET 0.000000 0.000000 0.000000
					}
				}
			}
		}
	}
	JOINT RightUpLeg
	{
		OFFSET -0.067670 -0.090522 -0.004320
		CHANNELS 3 Zrotation Yrotation Xrotation
		JOINT RightLeg
		{
			OFFSET -0.038290 -0.382569 -0.008850
			CHANNELS 3 Zrotation Yrotation Xrotation
			JOINT RightFoot
			{
				OFFSET 0.015774 -0.398415 -0.042312
				CHANNELS 3 Zrotation Yrotation Xrotation
				JOINT RightToe
				{
					OFFSET -0.025372 -0.048144 0.123348
					CHANNELS 3 Zrotation Yrotation Xrotation
					End Site
					{
						OFFSET 0.000000 0.000000 0.000000
					}
				}
			}
		}
	}
	JOINT Spine
	{
		OFFSET -0.002533 0.108963 -0.026696
		CHANNELS 3 Zrotation Yrotation Xrotation
		JOINT Spine1
		{
			OFFSET 0.005487 0.135180 0.001092
			CHANNELS 3 Zrotation Yrotation Xrotation
			JOINT Spine2
			{
				OFFSET 0.001457 0.052922 0.025425
				CHANNELS 3 Zrotation Yrotation Xrotation
				JOINT Neck
				{
					OFFSET -0.002778 0.213870 -0.042857
					CHANNELS 3 Zrotation Yrotation Xrotation
					JOINT Head
					{
						OFFSET 0.005152 0.064970 0.051349
						CHANNELS 3 Zrotation Yrotation Xrotation
						End Site
						{
							OFFSET 0.000000 0.000000 0.000000
						}
					}
				}
				JOINT LeftShoulder
				{
					OFFSET 0.078845 0.121749 -0.034090
					CHANNELS 3 Zrotation Yrotation Xrotation
					JOINT LeftArm
					{
						OFFSET 0.090977 0.030469 -0.008868
						CHANNELS 3 Zrotation Yrotation Xrotation
						JOINT LeftForeArm
						{
							OFFSET 0.259612 -0.012772 -0.027456
							CHANNELS 3 Zrotation Yrotation Xrotation
							JOINT LeftHand
							{
								OFFSET 0.249234 0.008986 -0.001171
								CHANNELS 3 Zrotation Yrotation Xrotation
								End Site
								{
									OFFSET 0.000000 0.000000 0.000000
								}
							}
						}
					}
				}
				JOINT RightShoulder
				{
					OFFSET -0.081759 0.118833 -0.038615
					CHANNELS 3 Zrotation Yrotation Xrotation
					JOINT RightArm
					{
						OFFSET -0.096012 0.032551 -0.009143
						CHANNELS 3 Zrotation Yrotation Xrotation
						JOINT RightForeArm
						{
							OFFSET -0.253742 -0.013329 -0.021401
							CHANNELS 3 Zrotation Yrotation Xrotation
							JOINT RightHand
							{
								OFFSET -0.255298 0.007772 -0.005559
								CHANNELS 3 Zrotation Yrotation Xrotation
								End Site
								{
									OFFSET 0.000000 0.000000 0.000000
								}
							}
						}
					}
				}
			}
		}
	}
}
MOTION
Frames: 11
Frame Time: 0.050000
0.043470 0.947675 -0.027810 2.381880 22.913621 8.144222 7.578018 -0.752392 -6.526220 -1.903180 0.042517 2.128739 5.538357 17.407151 21.947002 0.000000 0.000000 0.000000 -7.669374 -0.569091 -22.502811 -0.943525 0.189120 11.585929 4.191496 3.638147 19.907670 0.000000 0.000000 0.000000 15.339615 -11.329005 37.556848 -2.899114 1.656442 -23.244047 5.955979 3.765004 21.951207 18.575003 -10.818695 -14.491834 0.000000 0.000000 0.000000 4.426704 -17.349482 5.760354 -32.050473 -9.238788 -2.780739 -48.370613 -67.628624 31.484696 0.000000 0.000000 0.000000 20.866031 15.742313 11.860010 44.706508 52.882172 14.623595 9.094990 53.559879 9.220855 0.000000 0.000000 0.000000 
0.043964 0.947746 -0.028047 2.393385 23.076148 8.184687 7.591730 -0.762532 -6.698734 -1.991439 0.046653 2.167433 5.592957 17.532905 22.202142 0.000000 0.000000 0.000000 -7.744594 -0.600430 -22.505399 -0.915789 0.174936 11.737849 4.126862 3.649197 19.586793 0.000000 0.000000 0.000000 15.475680 -11.267969 37.143636 -2.954632 1.673947 -23.126790 5.939070 3.695749 21.987426 18.682097 -10.909976 -14.448301 0.000000 0.000000 0.000000 4.226902 -17.356484 5.759551 -32.368716 -9.260109 -2.802243 -48.119971 -67.272368 31.094243 0.000000 0.000000 0.000000 20.897436 15.343307 11.659698 45.514240 52.733563 14.925050 8.865250 53.105847 9.051431 0.000000 0.000000 0.000000 
0.044335 0.947843 -0.028304 2.490709 23.135614 8.240772 7.568368 -0.769286 -6.857828 -2.110874 0.051254 2.282963 5.524380 17.506392 22.425730 0.000000 0.000000 0.000000 -7.735819 -0.599839 -22.452705 -0.948612 0.179280 11.821632 3.699583 3.124046 19.066925 0.000000 0.000000 0.000000 15.538367 -11.185003 36.827557 -3.036477 1.694621 -23.142497 5.843270 3.446108 22.150779 18.779437 -11.155415 -14.103512 0.000000 0.000000 0.000000 3.488268 -17.510044 5.783523 -32.274939 -9.015977 -2.834977 -47.013832 -66.782264 30.147559 0.000000 0.000000 0.000000 21.319901 15.108321 11.593243 45.657758 52.301838 14.689912 9.375466 52.812328 9.235276 0.000000 0.000000 0.000000 
0.044596 0.947812 -0.028601 2.609371 23.131924 8.490700 7.588258 -0.786834 -7.184368 -2.284753 0.057649 2.482035 5.308365 17.264319 22.350597 0.000000 0.000000 0.000000 -7.859586 -0.646356 -22.698837 -0.769328 0.131715 11.971184 3.325566 2.600589 18.744183 0.000000 0.000000 0.000000 15.508462 -11.019503 36.401328 -2.972184 1.682566 -23.004113 5.670963 3.260201 22.249796 18.787892 -11.157338 -14.159499 0.000000 0.000000 0.000000 2.918266 -17.532573 5.777851 -32.325205 -8.758875 -2.882249 -46.565992 -66.460853 29.732018 0.000000 0.000000 0.000000 21.836294 14.830018 11.562384 45.912765 52.249704 14.690696 9.987283 52.179726 9.417274 0.000000 0.000000 0.000000 
0.044734 0.947588 -0.028898 2.693412 23.093748 8.617202 7.600000 -0.789757 -7.218482 -2.389635 0.066061 2.465533 5.083360 16.955503 22.051108 0.000000 0.000000 0.000000 -7.893939 -0.657797 -22.795966 -0.760165 0.126864 12.115951 3.100898 2.366531 18.201994 0.000000 0.000000 0.000000 15.511119 -10.959358 36.244150 -3.047068 1.697497 -23.026805 5.571031 3.051879 22.416218 18.852393 -11.249296 -14.143410 0.000000 0.000000 0.000000 2.446986 -17.599314 5.789847 -32.453256 -8.240270 -3.004874 -46.523849 -66.268447 29.700893 0.000000 0.000000 0.000000 22.193807 14.691491 11.529991 46.132267 51.924159 14.555766 11.047869 51.895467 9.872009 0.000000 0.000000 0.000000 
0.044839 0.947402 -0.029184 2.779444 23.081629 8.887080 7.629759 -0.802215 -7.401893 -2.493367 0.069537 2.602542 4.709297 16.396317 21.338327 0.000000 0.000000 0.000000 -8.004745 -0.706895 -23.137831 -0.589564 0.080747 12.293491 2.850653 1.985460 18.033146 0.000000 0.000000 0.000000 15.685345 -10.907535 35.864813 -3.252058 1.740245 -22.979794 5.485975 2.682018 22.557055 18.862417 -11.269931 -14.229255 0.000000 0.000000 0.000000 1.944673 -17.556134 5.776747 -32.452381 -7.800374 -3.098985 -46.471120 -66.287090 29.830559 0.000000 0.000000 0.000000 22.684959 14.554220 11.492526 46.024553 51.960230 14.435714 11.892208 51.742485 10.240628 0.000000 0.000000 0.000000 
0.044990 0.947100 -0.029366 2.819354 22.906070 9.155152 7.552795 -0.811335 -7.646311 -2.419358 0.062528 2.689181 4.653402 16.283867 21.132633 0.000000 0.000000 0.000000 -8.095234 -0.733837 -23.427577 -0.548296 0.072153 12.419617 2.958164 2.245097 17.580773 0.000000 0.000000 0.000000 15.732628 -10.781010 35.506618 -3.241609 1.734503 -22.873555 5.255585 2.512887 22.658619 18.870957 -11.282664 -14.269323 0.000000 0.000000 0.000000 1.712409 -17.397557 5.730043 -32.539580 -7.540176 -3.165724 -46.970722 -66.724322 30.510618 0.000000 0.000000 0.000000 23.178236 14.419012 11.496959 46.358222 51.974502 14.524496 13.031203 51.948711 10.887474 0.000000 0.000000 0.000000 
0.045290 0.947139 -0.029429 2.835289 22.607258 9.310434 7.373158 -0.803106 -7.643759 -2.334379 0.055960 2.756627 4.844604 16.370073 20.608110 0.000000 0.000000 0.000000 -7.974821 -0.681412 -23.507069 -0.699965 0.120444 12.327596 2.876171 2.175507 17.174776 0.000000 0.000000 0.000000 15.902861 -10.682027 35.138161 -3.471093 1.776671 -22.853963 5.155017 2.143307 22.726600 18.775115 -11.271856 -14.232662 0.000000 0.000000 0.000000 1.543798 -17.321860 5.718065 -32.789916 -7.185675 -3.274204 -47.784808 -66.974390 31.428256 0.000000 0.000000 0.000000 23.592975 14.299247 11.395391 46.986586 51.714385 14.624419 14.662630 52.122125 11.763787 0.000000 0.000000 0.000000 
0.045689 0.947285 -0.029355 2.914539 22.417471 9.513451 7.304128 -0.805605 -7.744841 -2.439122 0.063866 2.799613 4.872668 16.352633 20.439521 0.000000 0.000000 0.000000 -8.042912 -0.686387 -23.587867 -0.720793 0.133172 12.223117 2.897407 2.255577 16.908264 0.000000 0.000000 0.000000 15.905313 -10.562026 34.866986 -3.486280 1.773099 -22.892817 5.057683 1.914169 22.682497 18.558004 -11.103837 -14.292405 0.000000 0.000000 0.000000 1.636514 -17.195249 5.689346 -32.859781 -7.058882 -3.310668 -48.210096 -67.279934 32.010136 0.000000 0.000000 0.000000 24.031506 14.093816 11.298612 47.185366 51.283785 14.443833 16.014631 52.728756 12.653117 0.000000 0.000000 0.000000 
0.046183 0.947689 -0.029241 3.034652 22.186616 9.558907 7.104225 -0.789433 -7.595622 -2.356630 0.060089 2.765473 4.755603 16.166133 20.310685 0.000000 0.000000 0.000000 -8.127584 -0.695108 -23.655170 -0.727058 0.139727 12.264549 2.878914 2.161988 17.016373 0.000000 0.000000 0.000000 15.852956 -10.474646 34.793490 -3.446068 1.756171 -22.999152 4.945728 1.737726 22.699746 18.201259 -10.850339 -14.309898 0.000000 0.000000 0.000000 2.117634 -17.172822 5.693143 -33.157445 -7.217333 -3.327690 -48.007438 -67.335287 31.992499 0.000000 0.000000 0.000000 24.277854 14.061967 11.265626 47.317676 51.074451 14.366039 16.911688 53.134147 13.245153 0.000000 0.000000 0.000000 
0.046631 0.948108 -0.029091 3.077212 22.175541 9.520996 7.031072 -0.780646 -7.476246 -2.397924 0.062006 2.809531 4.739925 16.096876 20.095293 0.000000 0.000000 0.000000 -8.150789 -0.711593 -23.786468 -0.764080 0.142834 12.556411 2.875565 2.078346 17.279856 0.000000 0.000000 0.000000 15.910582 -10.483591 34.758432 -3.429442 1.750977 -23.055400 4.946263 1.524768 22.593586 17.885927 -10.647879 -14.246209 0.000000 0.000000 0.000000 2.518141 -17.206187 5.712111 -33.334783 -7.295271 -3.336651 -47.574258 -67.515402 31.864125 0.000000 0.000000 0.000000 24.446047 14.118607 11.273803 46.923850 50.935787 14.099853 16.933966 53.539812 13.366087 0.000000 0.000000 0.000000 
